<?xml version="1.0" encoding="UTF-8"?>
<svg xmlns="http://www.w3.org/2000/svg" xmlns:xlink="http://www.w3.org/1999/xlink" width="100pt" height="100pt" viewBox="0 0 100 100" version="1.1">
<g id="surface6767957">
<path style=" stroke:none;fill-rule:nonzero;fill:rgb(60.392157%,1.568627%,4.705882%);fill-opacity:1;" d="M 57.753906 15.8125 C 57.390625 15.863281 57.074219 16.113281 56.949219 16.480469 C 55.8125 19.78125 53.675781 21.570312 50.589844 21.796875 C 46.859375 22.066406 44.355469 20.335938 42.925781 16.492188 C 42.75 16.015625 42.25 15.746094 41.753906 15.867188 C 38.054688 16.769531 34.589844 18.222656 31.460938 20.183594 C 31.03125 20.449219 30.871094 20.996094 31.089844 21.457031 C 32.703125 24.871094 32.339844 27.707031 29.964844 30.121094 C 27.554688 32.570312 24.703125 32.980469 21.238281 31.386719 C 20.777344 31.171875 20.230469 31.34375 19.96875 31.777344 C 18.019531 34.980469 16.605469 38.457031 15.777344 42.101562 C 15.664062 42.589844 15.929688 43.085938 16.40625 43.261719 C 19.867188 44.53125 21.59375 46.75 21.671875 50.039062 C 21.75 53.46875 20.058594 55.804688 16.5 57.191406 C 16.03125 57.375 15.773438 57.871094 15.890625 58.359375 C 16.765625 61.960938 18.21875 65.402344 20.210938 68.585938 C 20.476562 69.007812 21.011719 69.167969 21.464844 68.96875 C 24.820312 67.472656 27.597656 67.863281 29.957031 70.164062 C 32.375 72.515625 32.832031 75.316406 31.347656 78.726562 C 31.148438 79.1875 31.316406 79.71875 31.742188 79.980469 C 34.945312 81.925781 38.402344 83.335938 42.027344 84.175781 C 42.089844 84.1875 42.152344 84.195312 42.214844 84.195312 C 42.609375 84.195312 43.007812 83.925781 43.183594 83.574219 C 43.238281 83.472656 43.277344 83.394531 43.300781 83.324219 C 44.445312 80.34375 46.976562 78.472656 49.917969 78.4375 C 49.949219 78.433594 49.984375 78.4375 50.019531 78.4375 C 53.121094 78.4375 55.671875 80.191406 56.863281 83.152344 C 57.085938 83.703125 57.585938 84.304688 58.671875 84.03125 C 61.96875 83.195312 65.113281 81.894531 68.03125 80.160156 C 68.152344 80.085938 68.273438 80.003906 68.382812 79.929688 L 68.492188 79.855469 C 68.898438 79.585938 69.054688 79.0625 68.859375 78.617188 C 67.476562 75.503906 67.753906 72.886719 69.699219 70.617188 C 72.078125 67.84375 75.027344 67.257812 78.714844 68.828125 C 79.164062 69.019531 79.695312 68.855469 79.957031 68.433594 C 81.929688 65.242188 83.363281 61.796875 84.21875 58.195312 C 84.335938 57.707031 84.074219 57.207031 83.605469 57.03125 C 80.179688 55.71875 78.480469 53.5 78.414062 50.246094 C 78.34375 46.816406 80.039062 44.480469 83.597656 43.101562 C 84.019531 42.9375 84.277344 42.515625 84.230469 42.070312 C 83.988281 39.65625 81.285156 33.152344 79.855469 31.523438 C 79.558594 31.1875 79.078125 31.089844 78.679688 31.277344 C 75.300781 32.863281 72.480469 32.472656 70.066406 30.089844 C 67.640625 27.691406 67.238281 24.835938 68.839844 21.359375 C 69.050781 20.898438 68.886719 20.355469 68.457031 20.089844 C 65.238281 18.109375 61.761719 16.675781 58.121094 15.832031 C 57.996094 15.800781 57.871094 15.796875 57.753906 15.8125 Z M 58.515625 17.984375 C 61.363281 18.726562 64.101562 19.855469 66.671875 21.351562 C 65.167969 25.234375 65.847656 28.730469 68.660156 31.511719 C 71.46875 34.285156 74.953125 34.933594 78.769531 33.417969 C 79.894531 35.199219 81.617188 39.382812 82.117188 41.550781 C 78.300781 43.289062 76.332031 46.292969 76.417969 50.285156 C 76.496094 54.109375 78.394531 56.886719 82.070312 58.550781 C 81.316406 61.382812 80.179688 64.105469 78.683594 66.664062 C 74.554688 65.1875 70.941406 66.097656 68.183594 69.3125 C 65.925781 71.945312 65.421875 75.144531 66.703125 78.617188 C 64.167969 80.089844 61.445312 81.21875 58.546875 81.992188 C 56.957031 78.457031 53.738281 76.414062 49.894531 76.433594 C 46.324219 76.480469 43.230469 78.59375 41.675781 82.027344 C 38.820312 81.292969 36.082031 80.175781 33.511719 78.699219 C 34.890625 74.882812 34.152344 71.453125 31.355469 68.730469 C 28.617188 66.070312 25.214844 65.410156 21.46875 66.804688 C 19.957031 64.253906 18.8125 61.535156 18.046875 58.707031 C 21.824219 56.960938 23.765625 53.964844 23.671875 49.992188 C 23.578125 46.179688 21.597656 43.332031 17.925781 41.714844 C 18.65625 38.863281 19.765625 36.125 21.238281 33.554688 C 25.109375 35.050781 28.605469 34.355469 31.390625 31.523438 C 34.144531 28.726562 34.777344 25.25 33.257812 21.429688 C 35.769531 19.953125 38.5 18.808594 41.394531 18.023438 C 43.203125 22.117188 46.425781 24.117188 50.742188 23.789062 C 54.359375 23.523438 57.03125 21.523438 58.515625 17.984375 Z M 48.855469 27.921875 C 48.171875 27.953125 47.492188 28.011719 46.820312 28.105469 C 46.546875 28.144531 46.359375 28.394531 46.398438 28.664062 C 46.429688 28.910156 46.644531 29.09375 46.886719 29.09375 C 46.910156 29.09375 46.929688 29.09375 46.957031 29.089844 C 48.238281 28.914062 49.554688 28.855469 50.855469 28.917969 C 51.164062 28.953125 51.359375 28.71875 51.371094 28.445312 C 51.386719 28.171875 51.175781 27.941406 50.902344 27.925781 C 50.21875 27.894531 49.535156 27.890625 48.855469 27.921875 Z M 44.753906 28.597656 C 44.691406 28.589844 44.621094 28.589844 44.554688 28.609375 C 37.410156 30.425781 31.648438 35.660156 29.15625 42.609375 C 29.0625 42.867188 29.195312 43.152344 29.453125 43.246094 C 29.507812 43.261719 29.566406 43.273438 29.621094 43.273438 C 29.824219 43.273438 30.015625 43.148438 30.089844 42.945312 C 30.828125 40.890625 31.867188 38.992188 33.152344 37.300781 L 35.238281 40.394531 C 35.09375 40.609375 34.941406 40.820312 34.808594 41.046875 C 32.390625 45.109375 31.707031 49.871094 32.871094 54.453125 C 33.140625 55.511719 33.511719 56.527344 33.957031 57.5 L 30.277344 57.6875 C 29.972656 56.917969 29.714844 56.125 29.507812 55.308594 C 29.4375 55.042969 29.171875 54.878906 28.902344 54.949219 C 28.636719 55.015625 28.476562 55.285156 28.546875 55.554688 C 29.269531 58.414062 30.582031 61.027344 32.355469 63.292969 C 32.375 63.320312 32.394531 63.34375 32.417969 63.371094 C 35.203125 66.894531 39.125 69.5625 43.785156 70.945312 C 45.78125 71.539062 47.796875 71.847656 49.785156 71.914062 C 49.792969 71.914062 49.796875 71.917969 49.800781 71.917969 C 49.808594 71.917969 49.808594 71.914062 49.816406 71.914062 C 50.054688 71.921875 50.292969 71.941406 50.53125 71.941406 C 55.957031 71.941406 61.125 70 65.117188 66.324219 C 65.320312 66.136719 65.335938 65.820312 65.148438 65.621094 C 64.960938 65.417969 64.648438 65.40625 64.445312 65.589844 C 62.347656 67.523438 59.90625 68.949219 57.269531 69.839844 L 57.558594 66.242188 C 57.566406 66.195312 57.554688 66.148438 57.542969 66.101562 C 60.730469 64.613281 63.402344 62.214844 65.234375 59.125 C 67.652344 55.0625 68.339844 50.300781 67.171875 45.71875 C 66.925781 44.738281 66.578125 43.796875 66.175781 42.890625 L 69.785156 42.5 C 70.078125 43.269531 70.332031 44.054688 70.539062 44.863281 C 70.59375 45.089844 70.796875 45.234375 71.019531 45.234375 C 71.058594 45.234375 71.101562 45.234375 71.140625 45.222656 C 71.40625 45.15625 71.566406 44.886719 71.5 44.617188 C 69.660156 37.390625 64.355469 31.609375 57.304688 29.148438 C 57.046875 29.058594 56.761719 29.195312 56.671875 29.453125 C 56.578125 29.714844 56.71875 29.996094 56.976562 30.085938 C 59.003906 30.792969 60.875 31.792969 62.554688 33.023438 L 57.769531 34.183594 C 54.007812 32.34375 49.757812 31.890625 45.65625 32.933594 C 44.617188 33.199219 43.625 33.5625 42.667969 33.996094 L 42.277344 30.382812 C 43.09375 30.0625 43.9375 29.789062 44.800781 29.566406 C 45.0625 29.5 45.222656 29.234375 45.15625 28.964844 C 45.105469 28.769531 44.945312 28.625 44.753906 28.597656 Z M 41.324219 30.789062 L 41.714844 34.398438 C 41.714844 34.421875 41.726562 34.441406 41.734375 34.464844 C 40.800781 34.957031 39.914062 35.527344 39.089844 36.175781 L 38.035156 32.640625 C 39.070312 31.929688 40.167969 31.308594 41.324219 30.789062 Z M 37.183594 33.261719 L 38.261719 36.863281 C 37.371094 37.652344 36.558594 38.539062 35.835938 39.507812 L 33.800781 36.492188 C 34.808594 35.292969 35.941406 34.207031 37.1875 33.261719 Z M 50.019531 33.378906 C 57.476562 33.378906 64.289062 38.414062 66.210938 45.964844 C 67.3125 50.289062 66.660156 54.78125 64.382812 58.617188 C 62.105469 62.457031 58.464844 65.171875 54.140625 66.273438 C 49.816406 67.375 45.324219 66.726562 41.488281 64.449219 C 37.652344 62.167969 34.933594 58.53125 33.832031 54.207031 C 32.730469 49.882812 33.382812 45.390625 35.660156 41.554688 C 37.9375 37.714844 41.578125 35 45.898438 33.898438 C 47.277344 33.546875 48.660156 33.378906 50.019531 33.378906 Z M 63.554688 33.804688 C 64.664062 34.726562 65.675781 35.757812 66.570312 36.878906 L 62.664062 37.523438 C 62.613281 37.535156 62.570312 37.554688 62.523438 37.578125 C 61.5 36.558594 60.359375 35.644531 59.085938 34.886719 Z M 67.238281 37.757812 C 68.082031 38.933594 68.796875 40.207031 69.386719 41.546875 L 65.722656 41.945312 C 65.066406 40.671875 64.265625 39.492188 63.324219 38.421875 L 67.15625 37.789062 C 67.1875 37.78125 67.210938 37.769531 67.238281 37.757812 Z M 50.078125 43.667969 C 48.363281 43.664062 46.75 44.296875 45.539062 45.496094 C 44.332031 46.679688 43.667969 48.269531 43.660156 49.964844 C 43.640625 53.460938 46.480469 56.316406 49.988281 56.332031 L 49.992188 56.332031 C 53.457031 56.3125 56.242188 53.613281 56.339844 50.1875 C 56.390625 48.464844 55.761719 46.839844 54.570312 45.605469 C 53.382812 44.371094 51.789062 43.683594 50.078125 43.667969 Z M 50.015625 44.667969 L 50.070312 44.667969 C 51.507812 44.683594 52.851562 45.261719 53.851562 46.296875 C 54.855469 47.335938 55.382812 48.707031 55.339844 50.15625 C 55.261719 53.042969 52.90625 55.3125 49.988281 55.332031 C 47.035156 55.316406 44.644531 52.910156 44.660156 49.96875 C 44.664062 48.542969 45.222656 47.203125 46.238281 46.207031 C 47.246094 45.210938 48.585938 44.667969 50.011719 44.667969 Z M 71.066406 54.402344 C 70.875 54.4375 70.71875 54.582031 70.671875 54.78125 C 70.382812 56.050781 69.972656 57.296875 69.457031 58.488281 C 69.347656 58.742188 69.460938 59.035156 69.714844 59.140625 C 69.777344 59.171875 69.84375 59.183594 69.910156 59.183594 C 70.101562 59.183594 70.285156 59.074219 70.367188 58.886719 C 70.90625 57.636719 71.335938 56.332031 71.640625 55.003906 C 71.699219 54.738281 71.535156 54.46875 71.265625 54.410156 C 71.199219 54.390625 71.128906 54.390625 71.066406 54.402344 Z M 34.449219 58.464844 C 35.015625 59.519531 35.679688 60.507812 36.445312 61.417969 L 32.960938 62.457031 C 32.066406 61.285156 31.3125 60.011719 30.695312 58.660156 Z M 69.085938 59.984375 C 68.894531 59.964844 68.699219 60.058594 68.601562 60.242188 C 68.164062 61.042969 67.671875 61.820312 67.140625 62.554688 C 66.984375 62.773438 67.03125 63.082031 67.253906 63.246094 C 67.34375 63.308594 67.441406 63.339844 67.542969 63.339844 C 67.699219 63.339844 67.847656 63.269531 67.945312 63.136719 C 68.5 62.367188 69.015625 61.554688 69.472656 60.714844 C 69.605469 60.476562 69.515625 60.175781 69.273438 60.042969 C 69.214844 60.011719 69.152344 59.992188 69.085938 59.984375 Z M 37.164062 62.238281 C 38.136719 63.269531 39.246094 64.175781 40.464844 64.957031 L 37.226562 66.617188 C 35.890625 65.644531 34.6875 64.53125 33.636719 63.292969 Z M 41.421875 65.546875 C 42.714844 66.261719 44.066406 66.816406 45.457031 67.191406 L 43.035156 69.503906 C 43 69.539062 42.976562 69.582031 42.949219 69.625 C 41.226562 69.015625 39.621094 68.21875 38.152344 67.261719 L 41.300781 65.644531 C 41.347656 65.617188 41.386719 65.582031 41.421875 65.546875 Z M 56.542969 66.523438 L 56.25 70.164062 C 54.441406 70.671875 52.550781 70.929688 50.625 70.9375 L 52.335938 67.753906 C 52.359375 67.710938 52.367188 67.667969 52.375 67.621094 C 53.046875 67.53125 53.71875 67.40625 54.386719 67.234375 C 55.128906 67.046875 55.84375 66.800781 56.542969 66.523438 Z M 46.539062 67.445312 C 47.675781 67.675781 48.828125 67.792969 49.992188 67.792969 C 50.398438 67.792969 50.808594 67.773438 51.214844 67.746094 L 49.507812 70.921875 C 47.703125 70.835938 45.878906 70.53125 44.066406 69.992188 C 44.039062 69.984375 44.015625 69.976562 43.988281 69.96875 L 46.417969 67.640625 C 46.480469 67.585938 46.515625 67.515625 46.539062 67.445312 Z M 46.539062 67.445312 "/>
</g>
</svg>
